<mxfile host="app.diagrams.net" agent="Mozilla/5.0 (X11; Linux x86_64) AppleWebKit/537.36 (KHTML, like Gecko) Chrome/136.0.0.0 Safari/537.36" version="26.2.14">
  <diagram name="Page-1" id="qrJ99iBzN_cF4fp5BMHT">
    <mxGraphModel dx="526" dy="346" grid="1" gridSize="10" guides="1" tooltips="1" connect="1" arrows="1" fold="1" page="1" pageScale="1" pageWidth="850" pageHeight="1100" math="0" shadow="0">
      <root>
        <mxCell id="0" />
        <mxCell id="1" parent="0" />
        <mxCell id="1GWd39i68P6a4Gj0c_zP-1" value="" style="endArrow=none;html=1;rounded=0;" edge="1" parent="1">
          <mxGeometry width="50" height="50" relative="1" as="geometry">
            <mxPoint x="30" y="360" as="sourcePoint" />
            <mxPoint x="40" y="360" as="targetPoint" />
          </mxGeometry>
        </mxCell>
        <mxCell id="1GWd39i68P6a4Gj0c_zP-2" value="a" style="text;html=1;align=center;verticalAlign=middle;resizable=0;points=[];autosize=1;strokeColor=none;fillColor=none;" vertex="1" parent="1">
          <mxGeometry x="20" y="338" width="30" height="30" as="geometry" />
        </mxCell>
        <mxCell id="1GWd39i68P6a4Gj0c_zP-4" value="" style="endArrow=none;html=1;rounded=0;" edge="1" parent="1">
          <mxGeometry width="50" height="50" relative="1" as="geometry">
            <mxPoint x="30" y="382" as="sourcePoint" />
            <mxPoint x="40" y="382" as="targetPoint" />
          </mxGeometry>
        </mxCell>
        <mxCell id="1GWd39i68P6a4Gj0c_zP-5" value="b" style="text;html=1;align=center;verticalAlign=middle;resizable=0;points=[];autosize=1;strokeColor=none;fillColor=none;" vertex="1" parent="1">
          <mxGeometry x="20" y="360" width="30" height="30" as="geometry" />
        </mxCell>
        <mxCell id="1GWd39i68P6a4Gj0c_zP-6" value="" style="endArrow=none;html=1;rounded=0;" edge="1" parent="1">
          <mxGeometry width="50" height="50" relative="1" as="geometry">
            <mxPoint x="30" y="402" as="sourcePoint" />
            <mxPoint x="40" y="402" as="targetPoint" />
          </mxGeometry>
        </mxCell>
        <mxCell id="1GWd39i68P6a4Gj0c_zP-7" value="c" style="text;html=1;align=center;verticalAlign=middle;resizable=0;points=[];autosize=1;strokeColor=none;fillColor=none;" vertex="1" parent="1">
          <mxGeometry x="20" y="380" width="30" height="30" as="geometry" />
        </mxCell>
        <mxCell id="1GWd39i68P6a4Gj0c_zP-8" value="" style="endArrow=none;html=1;rounded=0;" edge="1" parent="1">
          <mxGeometry width="50" height="50" relative="1" as="geometry">
            <mxPoint x="30" y="422" as="sourcePoint" />
            <mxPoint x="40" y="422" as="targetPoint" />
          </mxGeometry>
        </mxCell>
        <mxCell id="1GWd39i68P6a4Gj0c_zP-9" value="d" style="text;html=1;align=center;verticalAlign=middle;resizable=0;points=[];autosize=1;strokeColor=none;fillColor=none;" vertex="1" parent="1">
          <mxGeometry x="20" y="400" width="30" height="30" as="geometry" />
        </mxCell>
        <mxCell id="1GWd39i68P6a4Gj0c_zP-50" style="edgeStyle=orthogonalEdgeStyle;rounded=0;orthogonalLoop=1;jettySize=auto;html=1;entryX=0;entryY=0.5;entryDx=0;entryDy=0;" edge="1" parent="1" source="1GWd39i68P6a4Gj0c_zP-10" target="1GWd39i68P6a4Gj0c_zP-49">
          <mxGeometry relative="1" as="geometry" />
        </mxCell>
        <mxCell id="1GWd39i68P6a4Gj0c_zP-10" value="a-b" style="whiteSpace=wrap;html=1;aspect=fixed;" vertex="1" parent="1">
          <mxGeometry x="70" y="330" width="30" height="30" as="geometry" />
        </mxCell>
        <mxCell id="1GWd39i68P6a4Gj0c_zP-15" value="" style="endArrow=none;html=1;rounded=0;" edge="1" parent="1">
          <mxGeometry width="50" height="50" relative="1" as="geometry">
            <mxPoint x="40" y="359.86" as="sourcePoint" />
            <mxPoint x="70" y="340" as="targetPoint" />
          </mxGeometry>
        </mxCell>
        <mxCell id="1GWd39i68P6a4Gj0c_zP-16" value="" style="endArrow=none;html=1;rounded=0;exitX=0.633;exitY=0.059;exitDx=0;exitDy=0;exitPerimeter=0;entryX=0.008;entryY=0.664;entryDx=0;entryDy=0;entryPerimeter=0;" edge="1" parent="1" source="1GWd39i68P6a4Gj0c_zP-7" target="1GWd39i68P6a4Gj0c_zP-10">
          <mxGeometry width="50" height="50" relative="1" as="geometry">
            <mxPoint x="40" y="380" as="sourcePoint" />
            <mxPoint x="50" y="380" as="targetPoint" />
          </mxGeometry>
        </mxCell>
        <mxCell id="1GWd39i68P6a4Gj0c_zP-18" value="" style="endArrow=none;html=1;rounded=0;exitX=0.642;exitY=0.054;exitDx=0;exitDy=0;exitPerimeter=0;" edge="1" parent="1" source="1GWd39i68P6a4Gj0c_zP-9">
          <mxGeometry width="50" height="50" relative="1" as="geometry">
            <mxPoint x="40" y="400" as="sourcePoint" />
            <mxPoint x="50" y="400" as="targetPoint" />
          </mxGeometry>
        </mxCell>
        <mxCell id="1GWd39i68P6a4Gj0c_zP-19" value="" style="endArrow=none;html=1;rounded=0;" edge="1" parent="1">
          <mxGeometry width="50" height="50" relative="1" as="geometry">
            <mxPoint x="50" y="400" as="sourcePoint" />
            <mxPoint x="60" y="400" as="targetPoint" />
          </mxGeometry>
        </mxCell>
        <mxCell id="1GWd39i68P6a4Gj0c_zP-45" style="edgeStyle=orthogonalEdgeStyle;rounded=0;orthogonalLoop=1;jettySize=auto;html=1;exitX=1;exitY=0.5;exitDx=0;exitDy=0;" edge="1" parent="1" source="1GWd39i68P6a4Gj0c_zP-20">
          <mxGeometry relative="1" as="geometry">
            <mxPoint x="120" y="395" as="targetPoint" />
          </mxGeometry>
        </mxCell>
        <mxCell id="1GWd39i68P6a4Gj0c_zP-20" value="3*c" style="whiteSpace=wrap;html=1;aspect=fixed;" vertex="1" parent="1">
          <mxGeometry x="70" y="380" width="30" height="30" as="geometry" />
        </mxCell>
        <mxCell id="1GWd39i68P6a4Gj0c_zP-21" value="" style="endArrow=none;html=1;rounded=0;" edge="1" parent="1">
          <mxGeometry width="50" height="50" relative="1" as="geometry">
            <mxPoint x="70" y="400" as="sourcePoint" />
            <mxPoint x="70" y="400" as="targetPoint" />
            <Array as="points">
              <mxPoint x="60" y="400" />
            </Array>
          </mxGeometry>
        </mxCell>
        <mxCell id="1GWd39i68P6a4Gj0c_zP-27" value="" style="endArrow=none;html=1;rounded=0;" edge="1" parent="1">
          <mxGeometry width="50" height="50" relative="1" as="geometry">
            <mxPoint x="50" y="440" as="sourcePoint" />
            <mxPoint x="60" y="440" as="targetPoint" />
          </mxGeometry>
        </mxCell>
        <mxCell id="1GWd39i68P6a4Gj0c_zP-58" style="edgeStyle=orthogonalEdgeStyle;rounded=0;orthogonalLoop=1;jettySize=auto;html=1;entryX=0;entryY=0.5;entryDx=0;entryDy=0;" edge="1" parent="1" source="1GWd39i68P6a4Gj0c_zP-28" target="1GWd39i68P6a4Gj0c_zP-57">
          <mxGeometry relative="1" as="geometry" />
        </mxCell>
        <mxCell id="1GWd39i68P6a4Gj0c_zP-28" value="4*d" style="whiteSpace=wrap;html=1;aspect=fixed;" vertex="1" parent="1">
          <mxGeometry x="70" y="420" width="30" height="30" as="geometry" />
        </mxCell>
        <mxCell id="1GWd39i68P6a4Gj0c_zP-29" value="" style="endArrow=none;html=1;rounded=0;" edge="1" parent="1">
          <mxGeometry width="50" height="50" relative="1" as="geometry">
            <mxPoint x="70" y="440" as="sourcePoint" />
            <mxPoint x="70" y="440" as="targetPoint" />
            <Array as="points">
              <mxPoint x="60" y="440" />
            </Array>
          </mxGeometry>
        </mxCell>
        <mxCell id="1GWd39i68P6a4Gj0c_zP-30" value="" style="endArrow=none;html=1;rounded=0;" edge="1" parent="1">
          <mxGeometry width="50" height="50" relative="1" as="geometry">
            <mxPoint x="40" y="430" as="sourcePoint" />
            <mxPoint x="50" y="440" as="targetPoint" />
          </mxGeometry>
        </mxCell>
        <mxCell id="1GWd39i68P6a4Gj0c_zP-31" value="" style="endArrow=none;html=1;rounded=0;" edge="1" parent="1" target="1GWd39i68P6a4Gj0c_zP-9">
          <mxGeometry width="50" height="50" relative="1" as="geometry">
            <mxPoint x="40" y="429.86" as="sourcePoint" />
            <mxPoint x="50" y="429.86" as="targetPoint" />
          </mxGeometry>
        </mxCell>
        <mxCell id="1GWd39i68P6a4Gj0c_zP-32" value="" style="endArrow=none;html=1;rounded=0;entryX=0.667;entryY=0.667;entryDx=0;entryDy=0;entryPerimeter=0;" edge="1" parent="1" target="1GWd39i68P6a4Gj0c_zP-9">
          <mxGeometry width="50" height="50" relative="1" as="geometry">
            <mxPoint x="40" y="430" as="sourcePoint" />
            <mxPoint x="50" y="430" as="targetPoint" />
          </mxGeometry>
        </mxCell>
        <mxCell id="1GWd39i68P6a4Gj0c_zP-36" value="" style="endArrow=none;html=1;rounded=0;" edge="1" parent="1">
          <mxGeometry width="50" height="50" relative="1" as="geometry">
            <mxPoint x="40" y="310" as="sourcePoint" />
            <mxPoint x="40" y="310" as="targetPoint" />
          </mxGeometry>
        </mxCell>
        <mxCell id="1GWd39i68P6a4Gj0c_zP-40" value="" style="endArrow=none;html=1;rounded=0;" edge="1" parent="1">
          <mxGeometry width="50" height="50" relative="1" as="geometry">
            <mxPoint x="70" y="304.93" as="sourcePoint" />
            <mxPoint x="70" y="304.93" as="targetPoint" />
            <Array as="points">
              <mxPoint x="40" y="305" />
            </Array>
          </mxGeometry>
        </mxCell>
        <mxCell id="1GWd39i68P6a4Gj0c_zP-76" style="edgeStyle=orthogonalEdgeStyle;rounded=0;orthogonalLoop=1;jettySize=auto;html=1;" edge="1" parent="1" source="1GWd39i68P6a4Gj0c_zP-42">
          <mxGeometry relative="1" as="geometry">
            <mxPoint x="450" y="305" as="targetPoint" />
          </mxGeometry>
        </mxCell>
        <mxCell id="1GWd39i68P6a4Gj0c_zP-42" value="Shift register" style="rounded=0;whiteSpace=wrap;html=1;" vertex="1" parent="1">
          <mxGeometry x="70" y="290" width="250" height="30" as="geometry" />
        </mxCell>
        <mxCell id="1GWd39i68P6a4Gj0c_zP-43" value="i_valid" style="text;html=1;align=center;verticalAlign=middle;whiteSpace=wrap;rounded=0;" vertex="1" parent="1">
          <mxGeometry x="10" y="300" width="60" height="30" as="geometry" />
        </mxCell>
        <mxCell id="1GWd39i68P6a4Gj0c_zP-44" value="Stage 1" style="text;html=1;align=center;verticalAlign=middle;whiteSpace=wrap;rounded=0;" vertex="1" parent="1">
          <mxGeometry x="55" y="450" width="60" height="30" as="geometry" />
        </mxCell>
        <mxCell id="1GWd39i68P6a4Gj0c_zP-46" value="+1" style="whiteSpace=wrap;html=1;aspect=fixed;" vertex="1" parent="1">
          <mxGeometry x="120" y="380" width="30" height="30" as="geometry" />
        </mxCell>
        <mxCell id="1GWd39i68P6a4Gj0c_zP-55" style="edgeStyle=orthogonalEdgeStyle;rounded=0;orthogonalLoop=1;jettySize=auto;html=1;exitX=1;exitY=0.5;exitDx=0;exitDy=0;entryX=0.5;entryY=0;entryDx=0;entryDy=0;" edge="1" parent="1" source="1GWd39i68P6a4Gj0c_zP-49" target="1GWd39i68P6a4Gj0c_zP-52">
          <mxGeometry relative="1" as="geometry" />
        </mxCell>
        <mxCell id="1GWd39i68P6a4Gj0c_zP-49" value="&lt;font style=&quot;line-height: 20%; font-size: 6px;&quot;&gt;&amp;nbsp;Register&lt;/font&gt;" style="whiteSpace=wrap;html=1;aspect=fixed;" vertex="1" parent="1">
          <mxGeometry x="120" y="330" width="30" height="30" as="geometry" />
        </mxCell>
        <mxCell id="1GWd39i68P6a4Gj0c_zP-65" style="edgeStyle=orthogonalEdgeStyle;rounded=0;orthogonalLoop=1;jettySize=auto;html=1;entryX=0;entryY=0.5;entryDx=0;entryDy=0;" edge="1" parent="1" source="1GWd39i68P6a4Gj0c_zP-52" target="1GWd39i68P6a4Gj0c_zP-60">
          <mxGeometry relative="1" as="geometry">
            <Array as="points">
              <mxPoint x="220" y="365" />
              <mxPoint x="220" y="395" />
            </Array>
          </mxGeometry>
        </mxCell>
        <mxCell id="1GWd39i68P6a4Gj0c_zP-52" value="*" style="whiteSpace=wrap;html=1;aspect=fixed;" vertex="1" parent="1">
          <mxGeometry x="180" y="350" width="30" height="30" as="geometry" />
        </mxCell>
        <mxCell id="1GWd39i68P6a4Gj0c_zP-56" style="edgeStyle=orthogonalEdgeStyle;rounded=0;orthogonalLoop=1;jettySize=auto;html=1;entryX=0.459;entryY=1.026;entryDx=0;entryDy=0;entryPerimeter=0;" edge="1" parent="1" source="1GWd39i68P6a4Gj0c_zP-46" target="1GWd39i68P6a4Gj0c_zP-52">
          <mxGeometry relative="1" as="geometry" />
        </mxCell>
        <mxCell id="1GWd39i68P6a4Gj0c_zP-57" value="Shift register" style="rounded=0;whiteSpace=wrap;html=1;" vertex="1" parent="1">
          <mxGeometry x="120" y="420" width="90" height="30" as="geometry" />
        </mxCell>
        <mxCell id="1GWd39i68P6a4Gj0c_zP-60" value="-" style="whiteSpace=wrap;html=1;aspect=fixed;" vertex="1" parent="1">
          <mxGeometry x="230" y="377.5" width="35" height="35" as="geometry" />
        </mxCell>
        <mxCell id="1GWd39i68P6a4Gj0c_zP-61" value="Stage 2" style="text;html=1;align=center;verticalAlign=middle;whiteSpace=wrap;rounded=0;" vertex="1" parent="1">
          <mxGeometry x="105" y="450" width="60" height="30" as="geometry" />
        </mxCell>
        <mxCell id="1GWd39i68P6a4Gj0c_zP-62" value="Stage 3" style="text;html=1;align=center;verticalAlign=middle;whiteSpace=wrap;rounded=0;" vertex="1" parent="1">
          <mxGeometry x="160" y="450" width="60" height="30" as="geometry" />
        </mxCell>
        <mxCell id="1GWd39i68P6a4Gj0c_zP-64" style="edgeStyle=orthogonalEdgeStyle;rounded=0;orthogonalLoop=1;jettySize=auto;html=1;entryX=0.51;entryY=1.031;entryDx=0;entryDy=0;entryPerimeter=0;" edge="1" parent="1" source="1GWd39i68P6a4Gj0c_zP-57" target="1GWd39i68P6a4Gj0c_zP-60">
          <mxGeometry relative="1" as="geometry" />
        </mxCell>
        <mxCell id="1GWd39i68P6a4Gj0c_zP-75" style="edgeStyle=orthogonalEdgeStyle;rounded=0;orthogonalLoop=1;jettySize=auto;html=1;" edge="1" parent="1" source="1GWd39i68P6a4Gj0c_zP-67">
          <mxGeometry relative="1" as="geometry">
            <mxPoint x="450" y="395" as="targetPoint" />
          </mxGeometry>
        </mxCell>
        <mxCell id="1GWd39i68P6a4Gj0c_zP-67" value="/2" style="whiteSpace=wrap;html=1;aspect=fixed;" vertex="1" parent="1">
          <mxGeometry x="290" y="377.5" width="35" height="35" as="geometry" />
        </mxCell>
        <mxCell id="1GWd39i68P6a4Gj0c_zP-68" style="edgeStyle=orthogonalEdgeStyle;rounded=0;orthogonalLoop=1;jettySize=auto;html=1;entryX=-0.046;entryY=0.506;entryDx=0;entryDy=0;entryPerimeter=0;" edge="1" parent="1" source="1GWd39i68P6a4Gj0c_zP-60" target="1GWd39i68P6a4Gj0c_zP-67">
          <mxGeometry relative="1" as="geometry" />
        </mxCell>
        <mxCell id="1GWd39i68P6a4Gj0c_zP-71" value="Stage 4" style="text;html=1;align=center;verticalAlign=middle;whiteSpace=wrap;rounded=0;" vertex="1" parent="1">
          <mxGeometry x="217.5" y="450" width="60" height="30" as="geometry" />
        </mxCell>
        <mxCell id="1GWd39i68P6a4Gj0c_zP-72" value="Stage 5" style="text;html=1;align=center;verticalAlign=middle;whiteSpace=wrap;rounded=0;" vertex="1" parent="1">
          <mxGeometry x="277.5" y="450" width="60" height="30" as="geometry" />
        </mxCell>
        <mxCell id="1GWd39i68P6a4Gj0c_zP-77" value="clamping" style="text;html=1;align=center;verticalAlign=middle;whiteSpace=wrap;rounded=0;" vertex="1" parent="1">
          <mxGeometry x="355" y="367.5" width="60" height="30" as="geometry" />
        </mxCell>
        <mxCell id="1GWd39i68P6a4Gj0c_zP-78" value="o_valid" style="text;html=1;align=center;verticalAlign=middle;whiteSpace=wrap;rounded=0;" vertex="1" parent="1">
          <mxGeometry x="400" y="300" width="60" height="30" as="geometry" />
        </mxCell>
        <mxCell id="1GWd39i68P6a4Gj0c_zP-80" value="&lt;font style=&quot;font-size: 7px;&quot;&gt;reg&lt;/font&gt;" style="text;strokeColor=none;fillColor=none;align=left;verticalAlign=middle;spacingLeft=4;spacingRight=4;overflow=hidden;points=[[0,0.5],[1,0.5]];portConstraint=eastwest;rotatable=0;whiteSpace=wrap;html=1;" vertex="1" parent="1">
          <mxGeometry x="100" y="373" width="30" height="20" as="geometry" />
        </mxCell>
        <mxCell id="1GWd39i68P6a4Gj0c_zP-84" value="&lt;font style=&quot;font-size: 7px;&quot;&gt;register&lt;/font&gt;" style="text;strokeColor=none;fillColor=none;align=left;verticalAlign=middle;spacingLeft=4;spacingRight=4;overflow=hidden;points=[[0,0.5],[1,0.5]];portConstraint=eastwest;rotatable=0;whiteSpace=wrap;html=1;" vertex="1" parent="1">
          <mxGeometry x="150" y="377.5" width="40" height="20" as="geometry" />
        </mxCell>
        <mxCell id="1GWd39i68P6a4Gj0c_zP-85" value="&lt;font style=&quot;font-size: 7px;&quot;&gt;register&lt;/font&gt;" style="text;strokeColor=none;fillColor=none;align=left;verticalAlign=middle;spacingLeft=4;spacingRight=4;overflow=hidden;points=[[0,0.5],[1,0.5]];portConstraint=eastwest;rotatable=0;whiteSpace=wrap;html=1;" vertex="1" parent="1">
          <mxGeometry x="210" y="348" width="40" height="20" as="geometry" />
        </mxCell>
        <mxCell id="1GWd39i68P6a4Gj0c_zP-86" value="&lt;font style=&quot;font-size: 7px;&quot;&gt;reg&lt;/font&gt;" style="text;strokeColor=none;fillColor=none;align=left;verticalAlign=middle;spacingLeft=4;spacingRight=4;overflow=hidden;points=[[0,0.5],[1,0.5]];portConstraint=eastwest;rotatable=0;whiteSpace=wrap;html=1;" vertex="1" parent="1">
          <mxGeometry x="265" y="373" width="30" height="20" as="geometry" />
        </mxCell>
        <mxCell id="1GWd39i68P6a4Gj0c_zP-87" value="&lt;font style=&quot;font-size: 7px;&quot;&gt;reg&lt;/font&gt;" style="text;strokeColor=none;fillColor=none;align=left;verticalAlign=middle;spacingLeft=4;spacingRight=4;overflow=hidden;points=[[0,0.5],[1,0.5]];portConstraint=eastwest;rotatable=0;whiteSpace=wrap;html=1;" vertex="1" parent="1">
          <mxGeometry x="325" y="373" width="30" height="20" as="geometry" />
        </mxCell>
        <mxCell id="1GWd39i68P6a4Gj0c_zP-88" value="q" style="text;html=1;align=center;verticalAlign=middle;whiteSpace=wrap;rounded=0;" vertex="1" parent="1">
          <mxGeometry x="400" y="397.5" width="60" height="30" as="geometry" />
        </mxCell>
      </root>
    </mxGraphModel>
  </diagram>
</mxfile>
